REM DIRINDEX 1\2,1\3,1\4,1\5
REM DIRNAME "folder01","folder02","folder03","folder04","folder05"
TITLE ""
FILE "1Q_t_1449-1458.mp3" MP3
  TRACK 01 AUDIO
    TITLE "3:cjc172_5327"
    INDEX 01 00:00:00
  TRACK 02 AUDIO
    TITLE "0:"
    INDEX 01 00:01:16
  TRACK 03 AUDIO
    TITLE "4:cjc172_5328"
    INDEX 01 00:01:23
  TRACK 04 AUDIO
    TITLE "0:"
    INDEX 01 00:04:36
  TRACK 05 AUDIO
    TITLE "5:cjc172_5329"
    INDEX 01 00:04:43
  TRACK 06 AUDIO
    TITLE "0:"
    INDEX 01 00:09:21
  TRACK 07 AUDIO
    TITLE "3:cjc172_5330"
    INDEX 01 00:09:66
  TRACK 08 AUDIO
    TITLE "0:"
    INDEX 01 00:10:73
  TRACK 09 AUDIO
    TITLE "4:cjc172_5331"
    INDEX 01 00:11:04
  TRACK 10 AUDIO
    TITLE "0:"
    INDEX 01 00:12:41
  TRACK 11 AUDIO
    TITLE "5:cjc172_5332"
    INDEX 01 00:12:47
  TRACK 12 AUDIO
    TITLE "0:"
    INDEX 01 00:18:08
  TRACK 13 AUDIO
    TITLE "3:cjc172_5333"
    INDEX 01 00:18:53
  TRACK 14 AUDIO
    TITLE "0:"
    INDEX 01 00:19:59
  TRACK 15 AUDIO
    TITLE "4:cjc172_5334"
    INDEX 01 00:19:66
  TRACK 16 AUDIO
    TITLE "0:"
    INDEX 01 00:20:70
  TRACK 17 AUDIO
    TITLE "5:cjc172_5335"
    INDEX 01 00:21:01
  TRACK 18 AUDIO
    TITLE "0:"
    INDEX 01 00:25:14
  TRACK 19 AUDIO
    TITLE "3:cjc172_5336"
    INDEX 01 00:25:59
  TRACK 20 AUDIO
    TITLE "0:"
    INDEX 01 00:26:68
  TRACK 21 AUDIO
    TITLE "4:cjc172_5337"
    INDEX 01 00:27:01
  TRACK 22 AUDIO
    TITLE "0:"
    INDEX 01 00:29:22
  TRACK 23 AUDIO
    TITLE "5:cjc172_5338"
    INDEX 01 00:29:28
  TRACK 24 AUDIO
    TITLE "0:"
    INDEX 01 00:33:41
  TRACK 25 AUDIO
    TITLE "3:cjc172_5339"
    INDEX 01 00:34:13
  TRACK 26 AUDIO
    TITLE "0:"
    INDEX 01 00:35:32
  TRACK 27 AUDIO
    TITLE "4:cjc172_5340"
    INDEX 01 00:35:40
  TRACK 28 AUDIO
    TITLE "0:"
    INDEX 01 00:38:30
  TRACK 29 AUDIO
    TITLE "5:cjc172_5341"
    INDEX 01 00:38:34
  TRACK 30 AUDIO
    TITLE "0:"
    INDEX 01 00:43:22
  TRACK 31 AUDIO
    TITLE "3:cjc172_5342"
    INDEX 01 00:43:67
  TRACK 32 AUDIO
    TITLE "0:"
    INDEX 01 00:45:01
  TRACK 33 AUDIO
    TITLE "4:cjc172_5343"
    INDEX 01 00:45:07
  TRACK 34 AUDIO
    TITLE "0:"
    INDEX 01 00:47:45
  TRACK 35 AUDIO
    TITLE "5:cjc172_5344"
    INDEX 01 00:47:51
  TRACK 36 AUDIO
    TITLE "0:"
    INDEX 01 00:51:61
  TRACK 37 AUDIO
    TITLE "3:cjc172_5345"
    INDEX 01 00:52:31
  TRACK 38 AUDIO
    TITLE "0:"
    INDEX 01 00:53:40
  TRACK 39 AUDIO
    TITLE "4:cjc172_5346"
    INDEX 01 00:53:46
  TRACK 40 AUDIO
    TITLE "0:"
    INDEX 01 00:54:53
  TRACK 41 AUDIO
    TITLE "5:cjc172_5347"
    INDEX 01 00:54:61
  TRACK 42 AUDIO
    TITLE "0:"
    INDEX 01 00:59:70
  TRACK 43 AUDIO
    TITLE "3:cjc172_5348"
    INDEX 01 01:00:38
  TRACK 44 AUDIO
    TITLE "0:"
    INDEX 01 01:01:30
  TRACK 45 AUDIO
    TITLE "4:cjc172_5349"
    INDEX 01 01:01:47
  TRACK 46 AUDIO
    TITLE "0:"
    INDEX 01 01:03:56
  TRACK 47 AUDIO
    TITLE "5:cjc172_5350"
    INDEX 01 01:03:64
  TRACK 48 AUDIO
    TITLE "0:"
    INDEX 01 01:08:26
  TRACK 49 AUDIO
    TITLE "3:cjc172_5351"
    INDEX 01 01:08:71
  TRACK 50 AUDIO
    TITLE "0:"
    INDEX 01 01:09:68
  TRACK 51 AUDIO
    TITLE "4:cjc172_5352"
    INDEX 01 01:10:01
  TRACK 52 AUDIO
    TITLE "0:"
    INDEX 01 01:11:04
  TRACK 53 AUDIO
    TITLE "5:cjc172_5353"
    INDEX 01 01:11:08
  TRACK 54 AUDIO
    TITLE "0:"
    INDEX 01 01:16:02
  TRACK 55 AUDIO
    TITLE "3:cjc172_5354"
    INDEX 01 01:16:47
  TRACK 56 AUDIO
    TITLE "0:"
    INDEX 01 01:17:68
  TRACK 57 AUDIO
    TITLE "4:cjc172_5355"
    INDEX 01 01:18:01
  TRACK 58 AUDIO
    TITLE "0:"
    INDEX 01 01:20:68
  TRACK 59 AUDIO
    TITLE "5:cjc172_5356"
    INDEX 01 01:20:74
  TRACK 60 AUDIO
    TITLE "0:"
    INDEX 01 01:26:28
